<?xml version="1.0" encoding="utf-8"?>


<!-- The icon can be used freely in both personal and commercial projects with no attribution required, but always appreciated.
You may NOT sub-license, resell, rent, redistribute or otherwise transfer the icon without express written permission from iconmonstr.com -->


<!DOCTYPE svg PUBLIC "-//W3C//DTD SVG 1.1//EN" "http://www.w3.org/Graphics/SVG/1.1/DTD/svg11.dtd">

<svg version="1.1" xmlns="http://www.w3.org/2000/svg" xmlns:xlink="http://www.w3.org/1999/xlink" x="0px" y="0px"

	 width="512px" height="512px" viewBox="0 0 512 512" enable-background="new 0 0 512 512" xml:space="preserve">

<path style="fill:#ffffff;" id="stackoverflow-square-icon" d="M50.473,50v412h412V50H50.473z M223.58,186.562l99.791,58.858L310.8,266.73l-99.796-58.862

	L223.58,186.562z M196.884,243.648l111.881,30.075l-6.421,23.896l-111.888-30.078L196.884,243.648z M185.789,295.383l115.364,10.63

	l-2.268,24.634l-115.368-10.619L185.789,295.383z M298.353,337.738l0.017,24.75l-115.86,0.053l-0.011-24.742L298.353,337.738z

	 M337.736,401.662H146.289v-120.57h19.792v101.156h151.963V281.092h19.692V401.662z M327.397,242.024l-65.279-95.718l20.446-13.94

	l65.275,95.723L327.397,242.024z M352.271,226.584l-19.816-114.147l24.382-4.231l19.819,114.147L352.271,226.584z"/>

</svg>

